<svg width="24" height="25" viewBox="0 0 24 25" fill="none" xmlns="http://www.w3.org/2000/svg">
<path fill-rule="evenodd" clip-rule="evenodd" d="M11 2.5C6.02944 2.5 2 6.52944 2 11.5C2 16.4706 6.02944 20.5 11 20.5C13.125 20.5 15.078 19.7635 16.6177 18.5319L20.2929 22.2071C20.6834 22.5976 21.3166 22.5976 21.7071 22.2071C22.0976 21.8166 22.0976 21.1834 21.7071 20.7929L18.0319 17.1177C19.2635 15.578 20 13.625 20 11.5C20 6.52944 15.9706 2.5 11 2.5ZM4 11.5C4 7.63401 7.13401 4.5 11 4.5C14.866 4.5 18 7.63401 18 11.5C18 15.366 14.866 18.5 11 18.5C7.13401 18.5 4 15.366 4 11.5Z" fill="#000000"></path>
</svg>